<?xml version="1.0" standalone="no"?>
<!DOCTYPE svg PUBLIC "-//W3C//DTD SVG 20010904//EN"
 "http://www.w3.org/TR/2001/REC-SVG-20010904/DTD/svg10.dtd">
<svg version="1.0" xmlns="http://www.w3.org/2000/svg"
 width="1160.000000pt" height="1280.000000pt" viewBox="0 0 1160.000000 1280.000000"
 preserveAspectRatio="xMidYMid meet">
<g transform="translate(0.000000,1280.000000) scale(0.100000,-0.100000)"
fill="#000000" stroke="none">
<path d="M5960 12790 c-47 -5 -157 -13 -245 -20 -1047 -75 -2007 -431 -2734
-1014 -762 -611 -1268 -1460 -1431 -2401 -48 -282 -32 -490 55 -704 l26 -64
-68 -101 c-104 -154 -261 -359 -548 -716 -406 -505 -454 -565 -567 -716 -224
-298 -360 -527 -418 -704 -36 -110 -36 -125 -8 -203 40 -110 123 -182 348
-302 136 -73 152 -78 305 -101 135 -20 205 -45 255 -92 68 -65 71 -130 16
-293 -14 -41 -32 -107 -41 -147 -18 -89 -36 -125 -116 -232 -77 -104 -99 -151
-99 -215 0 -99 62 -183 223 -300 107 -78 105 -100 -27 -248 -108 -121 -126
-150 -126 -206 0 -42 -2 -40 155 -224 138 -163 188 -269 187 -398 0 -56 -14
-106 -90 -335 -104 -308 -127 -394 -141 -518 -24 -211 38 -368 227 -567 140
-149 313 -249 546 -315 l91 -26 930 -5 c512 -3 940 -9 952 -14 13 -5 44 -37
69 -71 148 -199 276 -630 384 -1288 16 -102 32 -200 35 -218 l6 -32 3114 0
c1713 0 3115 3 3115 8 0 4 -18 93 -39 197 -56 266 -143 746 -201 1100 -182
1110 -263 1979 -219 2340 20 162 97 385 215 620 90 179 177 322 353 580 546
801 575 848 691 1145 226 576 374 1182 425 1743 8 94 20 219 25 277 13 133 13
325 0 443 -5 51 -14 151 -20 222 -98 1172 -654 2219 -1560 2940 -828 659
-1931 1055 -3195 1150 -115 8 -260 20 -321 25 -126 11 -408 11 -534 0z m940
-630 c626 -49 1189 -204 1735 -480 800 -403 1412 -1001 1780 -1740 434 -869
480 -1854 129 -2744 -514 -1300 -1791 -2249 -3326 -2471 -428 -62 -949 -60
-1384 5 -1128 167 -2133 734 -2787 1572 -406 520 -651 1116 -729 1773 -16 142
-16 558 0 700 84 709 359 1339 827 1895 609 723 1534 1244 2525 1424 157 28
353 54 495 65 147 12 591 12 735 1z"/>
<path d="M6378 12107 c-5 -10 -8 -166 -8 -346 0 -315 -1 -329 -20 -346 -15
-14 -20 -31 -20 -72 l0 -54 30 35 30 34 -2 383 c-2 211 -6 376 -10 366z"/>
<path d="M6447 12114 c-4 -4 -7 -180 -7 -392 l0 -384 -30 -35 c-29 -33 -30
-36 -30 -145 l0 -111 78 -78 77 -79 38 12 c33 10 41 9 65 -9 36 -27 42 -83 13
-112 -31 -31 -84 -28 -110 5 -12 15 -21 32 -21 39 0 6 -11 22 -25 35 l-25 23
0 -230 0 -231 44 -26 c25 -14 52 -23 60 -20 25 9 72 -14 85 -42 16 -36 14 -50
-12 -80 -47 -54 -127 -26 -127 45 0 32 -6 39 -48 66 l-47 30 -3 230 c-1 150
-6 233 -13 240 -8 7 -9 4 -5 -12 8 -26 -16 -78 -39 -87 -33 -12 -66 -5 -90 19
-29 28 -31 48 -10 89 15 28 15 30 -21 63 -20 18 -38 33 -40 33 -2 0 -4 -40 -4
-89 l0 -88 100 -97 c80 -76 100 -102 100 -123 -1 -57 -54 -90 -106 -68 -46 19
-60 80 -27 117 16 18 14 22 -42 78 -33 33 -63 60 -68 60 -4 0 6 -26 23 -57 27
-53 30 -67 30 -153 l0 -96 38 -37 c28 -27 46 -37 70 -37 40 0 82 -38 82 -73 0
-40 -36 -77 -76 -77 -36 0 -74 28 -74 56 0 9 -27 44 -60 78 -47 49 -60 69 -60
94 0 16 -3 37 -6 46 -5 14 -8 14 -27 1 -63 -44 -145 16 -118 87 7 18 4 30 -15
53 l-24 30 0 -221 0 -220 28 -27 28 -27 500 0 500 0 38 39 c28 29 36 44 31 59
-7 25 17 77 40 86 57 21 109 -12 109 -69 0 -45 -31 -75 -77 -75 -22 0 -43 -12
-78 -45 l-48 -45 -517 0 -517 0 -43 44 -44 43 0 330 0 329 -37 36 c-35 33 -44
36 -105 40 l-68 4 27 -28 c18 -19 37 -28 59 -28 46 0 63 -9 80 -41 38 -75 -51
-144 -117 -90 -16 13 -23 29 -23 55 0 30 -8 43 -55 88 -31 29 -42 37 -25 18
53 -59 54 -64 54 -292 l0 -214 28 -27 c23 -22 34 -26 60 -21 26 5 36 1 62 -24
36 -37 38 -62 7 -98 -46 -53 -127 -25 -131 45 -1 20 -14 43 -39 69 l-37 38 0
217 0 218 -70 74 -70 74 0 83 0 83 -80 80 -80 80 0 134 0 134 -142 144 c-133
134 -167 159 -184 132 -3 -6 55 -73 135 -153 l141 -143 0 -143 0 -144 85 -87
85 -86 0 -112 c0 -107 1 -111 19 -101 51 27 121 -11 121 -65 0 -14 -11 -37
-25 -50 -32 -33 -76 -33 -106 0 -37 38 -49 32 -49 -24 0 -43 4 -52 35 -80 21
-18 41 -28 50 -25 24 10 71 -15 84 -42 16 -36 14 -50 -12 -80 -46 -53 -127
-25 -127 44 0 27 -9 45 -40 78 l-40 44 0 135 0 135 -100 0 -101 0 -49 46 -50
47 0 240 0 240 -122 124 c-67 67 -126 123 -132 123 -6 0 47 -58 117 -128 l127
-129 0 -233 0 -234 100 -101 100 -102 0 -234 0 -233 25 -21 c57 -47 31 -135
-41 -135 -44 0 -74 29 -74 73 0 21 8 41 20 52 19 17 20 31 20 249 l0 231 -100
100 -100 100 0 234 0 234 -127 129 c-113 114 -153 145 -153 120 0 -4 54 -61
120 -127 l120 -120 0 -239 0 -239 65 -68 65 -67 0 -335 0 -335 52 -26 c43 -22
66 -26 135 -26 81 0 84 1 123 36 36 33 40 41 40 84 0 41 4 52 26 69 15 12 38
21 51 21 31 0 73 -42 73 -73 0 -35 -36 -77 -67 -77 -18 0 -44 -17 -84 -55
l-58 -55 -103 0 c-101 0 -104 1 -168 38 l-65 38 -3 167 c-1 92 -5 167 -7 167
-3 0 -14 -9 -25 -20 -43 -43 -130 -6 -130 56 0 19 -15 43 -50 80 l-50 53 0
358 0 358 -125 125 c-69 69 -125 121 -125 115 0 -5 43 -52 95 -106 l95 -96 0
-139 c1 -106 4 -144 15 -158 24 -32 19 -81 -11 -105 -35 -28 -69 -26 -99 4
-36 35 -32 71 10 111 l35 33 0 117 0 117 -99 100 c-76 78 -103 99 -117 93 -15
-6 -7 -17 49 -74 l67 -68 0 -213 0 -214 90 -93 c79 -82 90 -97 90 -129 0 -72
-86 -104 -129 -49 -27 34 -27 64 0 98 l21 26 -61 63 -61 64 0 214 0 215 -40
39 -40 39 0 -179 c0 -170 1 -180 22 -202 31 -33 28 -80 -6 -110 -30 -26 -44
-28 -79 -12 -25 11 -47 47 -47 74 0 8 14 30 30 48 l30 35 0 159 c0 156 -1 160
-24 182 -13 13 -32 21 -43 19 -17 -3 -18 -20 -21 -262 -3 -312 -10 -294 116
-298 l86 -3 31 -45 c27 -41 30 -54 33 -140 4 -94 4 -95 40 -132 27 -28 44 -38
67 -38 64 0 100 -85 55 -130 -50 -50 -133 -6 -128 67 2 27 -6 41 -40 76 l-42
43 0 87 c0 68 -4 97 -20 127 l-20 40 -83 0 c-79 0 -85 1 -112 30 -33 35 -45
31 -45 -15 0 -24 9 -45 31 -70 37 -42 50 -43 83 -10 61 61 155 -2 121 -81 -19
-45 -71 -59 -111 -29 -10 8 -33 15 -49 15 -23 0 -43 13 -83 53 l-52 53 0 287
c0 158 -3 287 -6 287 -4 0 -22 -9 -41 -21 l-34 -21 36 -39 35 -39 0 -258 0
-257 98 -98 c84 -83 102 -97 130 -97 45 0 68 -14 80 -48 12 -34 -6 -85 -33
-96 -51 -19 -101 7 -110 58 -5 25 -35 61 -121 147 l-114 114 0 261 c0 259 0
261 -23 282 -38 36 -78 26 -52 -12 12 -17 15 -73 15 -323 l0 -302 31 -36 c19
-21 46 -39 71 -45 30 -9 43 -19 53 -42 34 -83 -58 -146 -122 -82 -20 20 -24
32 -20 59 5 28 0 38 -34 71 l-39 38 0 301 c0 313 -4 347 -42 333 -8 -4 -70
-48 -137 -98 -96 -72 -123 -98 -128 -121 -7 -36 -46 -69 -83 -69 -15 0 -36
-10 -50 -25 l-24 -25 34 -35 c19 -19 41 -35 51 -35 9 0 28 -9 43 -21 30 -24
35 -72 10 -107 -15 -21 -14 -22 18 -22 30 0 51 -18 198 -166 l165 -165 142 3
c127 2 144 1 162 -16 37 -34 26 -98 -20 -122 -25 -13 -33 -13 -65 1 -25 10
-71 15 -147 15 l-111 0 -171 170 -171 170 -108 0 -108 0 -65 63 -65 62 -50
-55 c-27 -30 -86 -100 -131 -155 l-81 -100 202 -5 201 -5 48 -47 c43 -42 52
-47 90 -46 55 3 83 -22 83 -73 0 -29 -6 -42 -26 -58 -30 -24 -43 -26 -77 -10
-26 12 -47 47 -47 77 0 10 -22 39 -48 65 l-48 47 -207 0 -207 0 -30 -41 c-16
-23 -27 -45 -24 -50 3 -5 69 -9 148 -9 139 0 143 1 164 25 29 33 66 41 98 21
67 -44 43 -136 -36 -136 -24 0 -43 7 -55 20 -17 19 -31 20 -194 20 l-176 0
-23 -36 c-12 -19 -20 -39 -17 -44 4 -6 221 -10 574 -10 l567 0 43 -44 c41 -42
44 -43 77 -33 49 15 88 -14 92 -70 4 -48 -23 -76 -70 -76 -34 0 -78 40 -78 71
0 10 -19 37 -43 60 l-43 42 -581 0 -582 0 -15 -22 c-34 -47 -31 -48 212 -48
l229 0 29 25 c32 28 51 31 88 14 49 -23 53 -104 7 -128 -31 -17 -76 -13 -96 9
-17 19 -31 20 -271 20 -250 0 -253 0 -268 -22 -34 -49 -41 -48 353 -48 l369 0
31 26 c21 18 31 35 31 54 0 41 18 76 47 89 34 16 47 14 77 -10 20 -16 26 -29
26 -58 0 -44 -21 -68 -67 -77 -17 -3 -48 -24 -69 -45 l-38 -39 -397 0 c-219 0
-404 -3 -413 -6 -9 -3 -16 -15 -16 -25 0 -18 16 -19 481 -19 l482 0 88 87 c72
70 88 90 83 109 -3 12 1 35 10 52 27 52 73 56 118 12 24 -25 29 -36 24 -58 -9
-36 -41 -62 -79 -62 -25 0 -48 -16 -128 -95 l-96 -95 -511 0 c-538 0 -522 1
-522 -41 0 -5 218 -9 538 -9 l538 0 74 75 74 75 62 0 c47 0 63 -4 68 -16 3 -9
6 -75 6 -147 0 -115 -3 -136 -20 -162 -11 -16 -20 -47 -20 -67 0 -42 -36 -78
-77 -78 -31 0 -73 42 -73 73 0 39 36 77 73 77 59 0 62 7 62 142 l0 123 -29 3
c-25 3 -40 -8 -105 -72 l-76 -76 -559 -2 c-437 -2 -560 -6 -564 -15 -3 -10 62
-13 303 -13 l306 0 48 -45 c35 -32 56 -45 78 -45 64 0 97 -84 50 -128 -50 -47
-131 -6 -126 63 3 28 -3 41 -31 70 l-34 35 -307 0 c-233 0 -309 -3 -316 -12
-18 -22 -47 -121 -48 -164 -1 -26 -10 -53 -23 -69 -43 -55 -44 -55 219 -55
l242 0 48 45 48 45 198 0 199 0 42 43 c23 23 42 51 42 60 0 28 45 67 78 67 37
0 72 -37 72 -76 0 -41 -36 -74 -80 -74 -24 0 -44 -10 -76 -40 l-44 -40 -194 0
-195 0 -51 -45 -51 -45 -264 0 c-165 0 -266 -4 -270 -10 -4 -7 89 -10 273 -10
l279 0 22 24 c21 22 33 25 134 29 62 3 129 9 150 12 32 6 42 3 63 -16 32 -30
31 -72 -1 -104 -31 -32 -66 -32 -103 0 -26 22 -40 25 -102 25 -63 0 -78 -4
-106 -25 l-33 -25 -293 0 c-298 0 -318 -2 -318 -37 0 -10 97 -13 503 -13 l503
0 52 53 c29 29 52 62 52 73 0 38 38 74 76 74 71 0 103 -86 48 -129 -15 -12
-41 -21 -58 -21 -24 0 -43 -12 -89 -57 l-58 -58 -522 -5 c-487 -5 -522 -6
-525 -22 -3 -17 29 -18 563 -18 552 0 568 1 592 20 34 27 69 25 98 -5 31 -30
33 -77 5 -105 -27 -27 -84 -27 -107 0 -12 14 -30 20 -58 20 l-40 -1 37 -34
c33 -31 44 -35 92 -35 49 0 57 3 84 34 l30 34 0 208 0 209 36 32 36 33 108 0
108 0 47 48 c26 26 47 55 47 63 0 25 44 59 76 59 66 0 98 -84 50 -129 -17 -16
-34 -21 -64 -20 -36 3 -46 -2 -91 -44 l-50 -47 -110 0 c-99 0 -111 -2 -121
-19 -6 -12 -10 -102 -10 -223 l0 -202 -52 -53 c-49 -49 -51 -53 -27 -53 17 0
42 17 79 55 l53 54 -13 40 c-11 35 -11 43 4 66 44 67 139 43 139 -36 0 -24
-19 -49 -109 -139 l-110 -110 -459 0 -459 0 -191 -190 c-168 -167 -195 -190
-223 -190 -18 0 -32 -4 -32 -10 0 -5 17 -10 37 -10 35 0 49 11 218 180 l181
180 492 0 493 0 20 35 c35 59 77 70 123 34 29 -23 35 -72 12 -104 -23 -32
-111 -38 -618 -42 l-486 -3 -174 -174 c-95 -95 -183 -179 -195 -185 -12 -6
-38 -11 -57 -11 -25 0 -36 -4 -36 -15 0 -12 14 -15 62 -15 l62 0 196 195 196
195 295 0 295 0 44 -45 c35 -36 51 -45 78 -45 61 0 101 -66 72 -120 -15 -28
-61 -40 -97 -25 -31 13 -43 32 -43 69 0 12 -17 38 -38 59 l-38 37 -275 0 -274
0 -195 -195 -195 -195 -67 0 c-54 0 -68 -3 -68 -15 0 -12 15 -15 77 -15 l76 0
182 180 182 180 178 0 c163 0 181 2 199 19 12 11 33 23 48 26 22 6 33 1 58
-23 38 -38 38 -66 1 -103 -35 -34 -59 -36 -94 -9 -23 18 -40 20 -199 20 l-173
0 -175 -175 -175 -175 -88 0 c-86 0 -88 -1 -85 -22 3 -22 8 -23 93 -26 l90 -3
165 166 165 165 358 0 357 0 45 41 c43 39 45 44 45 95 0 48 4 58 36 94 36 40
37 40 108 40 66 0 75 2 99 28 l27 28 0 223 0 223 -40 40 c-21 22 -44 37 -50
33 -22 -13 -70 7 -85 35 -20 39 -19 54 8 86 42 49 127 26 127 -33 0 -15 19
-44 50 -77 l50 -53 0 -258 0 -257 -39 -39 c-38 -38 -40 -39 -113 -39 -94 0
-108 -12 -108 -91 0 -54 -1 -56 -63 -117 l-63 -62 -359 0 -359 0 -166 -165
-166 -165 -97 0 c-90 0 -97 -1 -97 -20 0 -19 7 -20 117 -20 l117 0 166 165
166 165 335 0 334 0 82 83 c75 75 82 85 80 120 -1 43 22 72 65 82 22 6 33 1
58 -23 16 -17 30 -40 30 -52 0 -32 -53 -80 -88 -80 -16 0 -37 -9 -47 -20 -18
-20 -17 -20 96 -20 l115 0 39 -41 c27 -27 46 -38 59 -35 24 6 66 -10 82 -32
20 -25 17 -69 -6 -92 -51 -51 -122 -26 -128 46 -2 27 -13 49 -35 72 -30 31
-32 32 -122 32 l-90 0 -80 -80 c-44 -44 -73 -80 -64 -80 8 0 30 16 49 35 19
19 40 35 47 35 8 0 24 12 37 27 32 36 81 36 113 -1 31 -36 29 -61 -7 -98 -35
-34 -68 -33 -108 5 l-22 21 -38 -37 -38 -37 -93 0 c-133 0 -131 2 -131 -131
l0 -110 -50 -53 c-27 -29 -50 -56 -50 -59 0 -4 22 -7 48 -7 44 0 52 4 95 48
26 26 47 52 47 57 0 6 -12 21 -25 34 -33 30 -33 74 0 106 30 30 64 32 99 4 35
-28 36 -81 1 -113 -14 -13 -25 -32 -25 -43 0 -11 -28 -46 -64 -81 l-64 -62
-331 0 -330 0 -34 -30 -34 -29 -149 -4 -149 -3 164 -2 163 -2 35 30 34 30 323
0 323 0 96 98 97 97 0 70 c0 69 1 72 38 108 l38 37 120 0 120 0 39 -40 c24
-24 48 -40 63 -40 29 0 82 -51 82 -79 0 -34 -43 -74 -79 -74 -47 0 -76 33 -74
86 1 33 -5 48 -25 70 -25 26 -29 27 -127 27 -93 0 -103 -2 -123 -23 -18 -19
-22 -35 -22 -90 0 -37 4 -67 9 -67 17 0 29 26 28 63 -2 75 81 110 130 53 31
-36 29 -61 -7 -98 -22 -22 -37 -29 -55 -26 -19 4 -47 -19 -167 -139 l-143
-143 -324 0 -324 0 -38 -35 -39 -35 -149 0 c-89 0 -152 -4 -156 -10 -4 -7 51
-10 158 -10 l163 0 29 30 29 30 329 0 330 0 142 140 142 140 179 0 179 0 38
35 c34 31 37 39 37 86 0 42 -5 56 -25 75 -40 37 -32 94 16 120 80 41 144 -53
84 -124 -20 -24 -25 -41 -25 -84 0 -52 -2 -56 -53 -106 l-53 -52 -179 0 -179
0 -141 -140 -142 -140 -327 0 -328 0 -35 -30 -34 -30 -159 0 c-100 0 -160 -4
-160 -10 0 -6 126 -10 359 -10 356 0 360 0 366 21 9 26 67 51 100 43 36 -9 65
-50 65 -91 l0 -35 31 26 c17 14 34 26 38 26 4 0 14 12 22 27 8 14 29 32 47 40
27 11 37 11 66 -1 19 -8 39 -23 45 -34 28 -53 -2 -125 -58 -137 -33 -7 -84 15
-99 42 -9 14 -19 8 -75 -46 l-65 -62 -364 0 c-199 0 -371 -3 -380 -7 -17 -7
-17 -9 0 -42 l17 -35 303 -3 c202 -1 302 1 302 8 0 15 61 50 87 50 12 0 38
-14 58 -31 l35 -31 0 34 c0 25 8 42 33 66 33 32 34 32 134 32 94 0 104 2 132
26 28 23 30 29 25 68 -8 54 7 83 52 102 29 12 39 12 68 0 92 -38 68 -160 -34
-173 -32 -4 -56 -16 -83 -39 -37 -34 -37 -34 -140 -34 -129 0 -137 -6 -137
-101 l0 -65 -53 -52 -53 -52 -312 0 c-219 0 -312 -3 -312 -11 0 -6 8 -24 17
-40 17 -28 19 -29 101 -29 80 0 85 1 112 30 58 62 155 24 155 -60 0 -34 -6
-47 -28 -66 -42 -36 -89 -32 -133 11 -30 30 -41 35 -82 35 -69 0 -76 -9 -46
-53 l25 -37 112 0 112 0 100 100 c97 97 101 100 145 100 41 0 49 4 107 62 60
60 62 63 56 103 -7 53 24 93 79 102 32 5 41 1 68 -25 32 -32 39 -76 19 -114
-14 -26 -67 -48 -102 -41 -16 3 -27 1 -27 -6 0 -7 31 -11 93 -11 84 0 96 2
115 23 15 16 18 27 12 37 -18 28 -11 78 14 107 34 39 98 39 132 0 51 -60 18
-140 -65 -153 -25 -4 -50 -17 -67 -35 -27 -28 -31 -29 -128 -29 l-100 0 -166
-165 -166 -165 -132 0 c-81 0 -132 -4 -132 -10 0 -6 70 -10 191 -10 l192 0 93
92 c87 85 94 95 94 130 0 70 32 107 93 108 82 0 116 -92 57 -152 -26 -25 -36
-29 -68 -25 -36 4 -41 1 -140 -97 l-102 -101 -183 -5 -182 -6 253 -2 252 -2 0
41 c0 31 6 47 29 70 40 39 82 39 122 0 38 -38 40 -88 4 -123 -31 -31 -101 -38
-397 -38 -132 0 -208 -4 -208 -10 0 -6 104 -10 293 -10 l293 0 37 38 c36 37
37 39 37 118 0 78 1 81 35 114 33 32 35 37 29 82 -6 43 -4 50 24 78 34 34 74
39 110 14 12 -8 26 -13 32 -9 5 3 9 128 9 312 l-1 306 94 94 93 93 570 0 571
0 47 -48 47 -48 0 -273 c0 -168 4 -280 10 -292 10 -19 33 -19 1085 -19 l1075
0 39 -35 38 -35 240 0 239 0 82 84 82 84 0 83 0 84 98 98 97 97 233 0 233 0
53 -50 53 -50 97 0 96 0 44 -40 c43 -39 44 -40 120 -40 l77 0 48 -45 c27 -25
58 -45 70 -45 32 0 71 -43 71 -79 0 -17 -11 -42 -26 -60 l-26 -31 219 0 218 0
243 243 c204 204 242 247 242 271 0 20 11 39 34 61 25 24 39 49 50 93 9 33 16
64 16 68 0 5 -107 -98 -238 -229 l-238 -237 -385 0 -385 0 -44 45 -44 45 -116
0 -115 0 -98 98 -97 97 0 54 c0 52 -2 55 -65 120 l-65 68 0 272 0 273 -25 30
c-30 36 -32 76 -5 111 54 68 156 18 142 -70 -2 -12 -17 -33 -33 -47 l-29 -25
0 -263 0 -262 62 -63 c59 -59 61 -64 66 -120 4 -57 5 -59 85 -140 l82 -83 115
0 116 0 44 -45 44 -45 366 0 366 0 257 258 c141 142 257 262 257 267 0 6 -115
-105 -255 -245 l-255 -255 -350 -3 -350 -3 -54 51 -53 50 -87 0 -86 0 -44 40
c-34 31 -51 40 -79 40 -83 0 -123 95 -62 147 14 13 37 23 51 23 35 0 84 -51
84 -87 0 -20 11 -39 33 -61 32 -31 36 -32 121 -32 l87 0 53 -50 53 -50 323 0
324 0 284 283 c156 155 284 284 283 287 0 3 -10 7 -22 8 -17 3 -79 -54 -288
-262 l-267 -266 -298 0 -297 0 -55 52 -55 52 -29 -17 c-49 -29 -93 -19 -118
30 -19 35 -14 63 17 94 49 48 72 41 170 -56 84 -82 136 -115 92 -59 -58 73 13
174 92 132 12 -6 28 -19 35 -30 12 -16 30 -18 210 -18 l197 0 255 255 256 255
68 0 c50 0 67 3 64 13 -3 8 -31 13 -83 15 l-78 3 -242 -241 -241 -241 -180 6
c-98 3 -343 8 -544 10 l-365 6 -47 43 -48 44 0 443 0 444 -26 -32 c-48 -61
-134 -34 -134 41 0 25 7 40 26 55 44 35 91 24 118 -27 15 -27 15 -27 16 25 0
47 -4 58 -35 92 -20 21 -48 42 -63 46 -43 11 -62 34 -62 76 0 29 6 42 26 58
30 24 43 26 78 10 30 -14 49 -57 41 -90 -5 -19 2 -32 35 -64 l40 -39 0 -177 0
-177 39 21 c38 21 41 21 75 5 25 -12 37 -26 41 -45 3 -15 9 -39 13 -53 l7 -25
157 -5 157 -5 33 -32 c32 -31 39 -33 104 -33 l69 0 90 90 90 90 65 0 65 0 150
150 149 150 225 2 c169 2 225 6 229 16 3 9 -47 12 -229 12 l-233 0 -161 -160
-161 -160 -116 0 c-132 0 -150 -8 -129 -58 31 -75 -49 -149 -120 -112 -27 15
-51 67 -43 93 10 35 43 65 78 71 18 4 43 17 56 31 22 24 29 25 139 25 l115 0
161 160 161 160 243 0 c159 0 240 3 236 10 -4 6 -99 10 -253 10 l-246 0 -161
-160 -161 -160 -144 0 -144 0 -82 -80 -82 -80 -86 0 -87 0 -127 122 c-70 67
-130 130 -134 140 -10 26 7 64 37 84 33 22 69 11 98 -29 19 -24 20 -31 8 -63
l-13 -36 73 -74 73 -74 66 0 65 0 77 78 78 77 148 3 147 3 153 152 152 152
268 5 c168 3 267 9 267 15 0 6 -100 11 -275 13 l-275 2 -150 -150 -150 -150
-149 0 -148 0 -77 -75 -77 -75 -74 0 c-73 0 -73 0 -116 44 l-44 43 0 135 c0
150 -6 167 -50 143 -36 -20 -55 -18 -86 8 -54 47 -23 130 47 130 23 0 38 -7
53 -27 12 -15 36 -44 54 -65 l32 -38 0 -131 c0 -126 1 -132 26 -161 23 -28 32
-31 82 -31 l56 0 77 75 77 75 148 0 148 0 151 150 151 150 277 0 c240 0 277 2
277 15 0 13 -38 15 -278 15 l-277 0 -150 -150 -150 -150 -181 0 c-163 0 -183
-2 -197 -18 -10 -10 -17 -30 -17 -44 0 -41 -36 -78 -76 -78 -71 0 -103 86 -48
129 15 12 33 21 40 21 8 0 31 16 53 35 l38 35 179 0 179 0 155 155 c85 85 148
155 140 155 -8 0 -80 -65 -160 -145 l-147 -145 -215 0 c-207 0 -216 1 -249 23
-27 18 -35 30 -37 61 -8 89 92 112 139 31 l21 -35 152 0 151 0 145 145 145
145 302 0 c263 0 303 2 303 15 0 13 -41 15 -307 15 l-307 0 -151 -150 -151
-150 -113 0 c-78 0 -120 4 -139 14 -15 8 -63 51 -107 95 l-80 81 -172 0 -172
0 -34 -30 c-33 -29 -39 -30 -125 -30 l-90 0 -37 41 -37 41 4 99 3 98 46 48
c42 44 46 51 42 86 -10 75 75 118 125 64 43 -46 19 -109 -47 -127 -25 -6 -53
-26 -80 -55 -41 -44 -41 -45 -41 -123 0 -69 3 -81 23 -100 19 -18 35 -22 91
-22 62 0 72 3 103 30 l34 30 190 0 191 0 98 -95 98 -95 104 0 103 0 150 150
c82 83 143 150 135 150 -9 0 -78 -63 -155 -140 l-140 -140 -94 0 -94 0 -96 95
-97 95 -227 0 c-215 0 -229 -1 -256 -21 -82 -61 -173 39 -101 111 28 28 64 25
103 -10 l35 -30 234 0 234 0 49 -50 c27 -27 52 -50 55 -50 3 0 4 33 2 72 -5
108 -17 118 -144 118 l-99 0 -48 45 c-41 38 -54 45 -89 45 -32 0 -45 6 -61 26
-24 30 -26 43 -10 77 11 24 47 47 74 47 27 0 67 -45 69 -78 1 -22 13 -44 41
-72 l39 -40 101 0 101 0 37 -38 c35 -36 37 -41 37 -103 0 -62 2 -67 38 -102
31 -30 45 -37 78 -37 37 0 46 7 189 150 l150 150 318 0 c298 0 318 1 315 18
-3 16 -29 17 -348 20 l-344 2 -97 -96 c-73 -72 -99 -106 -104 -131 -12 -65
-98 -85 -138 -31 -23 31 -18 67 14 99 17 17 29 20 61 15 39 -6 68 5 68 25 0 5
-33 9 -72 9 l-72 0 -68 67 -67 67 -23 -21 c-44 -40 -92 -37 -125 6 -42 55 32
142 92 108 54 -29 104 -69 155 -121 53 -55 56 -56 110 -56 l55 0 78 78 c43 43
74 81 71 85 -13 13 -99 7 -121 -8 -15 -11 -21 -25 -20 -50 1 -40 -23 -70 -65
-80 -22 -6 -33 -1 -58 23 -38 38 -38 66 0 104 24 23 36 29 56 24 19 -5 33 0
55 19 l31 25 409 0 c271 0 408 3 404 10 -4 7 -299 10 -852 10 l-846 0 -142
140 c-139 138 -141 140 -186 140 -43 0 -47 -2 -167 -123 l-123 -123 3 -139 3
-140 45 -3 c24 -2 48 -9 52 -15 13 -21 9 -282 -4 -295 -7 -7 -31 -12 -55 -12
l-44 0 3 -157 3 -158 30 3 c70 7 114 -79 65 -128 -24 -24 -82 -27 -100 -6 -6
8 -28 16 -48 18 l-37 3 -5 210 -5 210 -95 0 -95 0 -3 -238 -2 -238 56 -59 56
-59 259 -3 258 -3 41 -40 40 -39 -2 -286 -3 -285 -33 -3 c-33 -3 -33 -4 -30
-50 3 -44 6 -49 57 -84 48 -33 58 -37 97 -31 49 6 78 -11 95 -55 19 -49 -31
-112 -87 -112 -27 0 -74 56 -74 88 0 24 -10 36 -70 77 l-69 48 -3 56 c-3 56
-3 56 -38 61 l-35 5 -3 124 c-1 69 -7 130 -13 137 -6 7 -31 16 -56 20 -44 6
-46 6 -99 -47 l-54 -53 0 -338 0 -338 -79 -83 -80 -83 -3 -70 -3 -69 -57 -3
-58 -3 0 100 0 101 35 39 c19 21 35 41 35 45 0 3 -13 6 -29 6 -17 0 -31 6 -35
16 -3 9 -6 71 -6 139 l0 123 -27 7 c-23 5 -35 -3 -100 -67 l-73 -72 0 -168 0
-168 -34 -38 -34 -37 -1059 -3 c-582 -1 -1068 0 -1080 3 l-23 5 0 261 0 260
-57 60 -56 59 -378 0 c-207 0 -384 3 -393 6 -14 5 -16 41 -16 294 0 257 2 289
16 294 14 5 16 18 10 86 -8 89 3 119 54 140 86 36 149 -41 150 -182 0 -40 3
-48 19 -48 16 0 19 -11 25 -92 3 -50 6 -131 6 -180 0 -48 3 -88 7 -88 4 0 47
39 95 87 l88 88 0 485 0 485 85 85 c80 80 85 87 85 127 l0 42 -152 3 -153 3
-3 48 -3 47 -120 0 c-114 0 -121 1 -144 25 -30 30 -32 64 -4 99 20 25 24 26
128 26 106 0 108 0 136 30 l29 30 605 2 c561 3 606 4 609 20 3 18 -61 58 -93
58 -9 0 -27 11 -40 25 -33 32 -33 74 1 106 23 21 35 24 105 24 l80 0 60 -62
c56 -58 59 -63 59 -112 0 -44 3 -51 20 -51 10 0 24 -9 30 -19 11 -21 14 -268
4 -295 -5 -14 -28 -16 -145 -16 -86 0 -139 -4 -139 -10 0 -6 62 -10 165 -10
l165 0 0 178 c0 97 5 184 10 192 8 12 17 7 52 -28 l44 -42 386 0 c383 0 387 0
425 23 l38 22 -145 2 c-183 3 -190 5 -190 43 l0 30 -83 0 c-51 0 -88 5 -95 12
-12 12 -16 95 -6 122 5 12 21 16 72 16 64 0 67 1 109 42 43 42 43 43 43 112
l0 70 85 87 85 86 0 54 0 53 -95 97 -95 96 0 781 0 782 -24 6 c-14 3 -33 4
-43 2 -17 -3 -18 -23 -21 -330 l-2 -327 35 -64 35 -64 0 -314 0 -315 -45 -44
c-35 -35 -45 -51 -45 -77 0 -63 -70 -102 -118 -66 -51 38 -35 123 25 137 15 4
45 24 66 44 32 31 37 42 37 80 l0 45 -21 -27 c-29 -37 -89 -37 -118 0 -26 33
-26 50 -2 89 l18 30 -68 71 -69 72 0 541 c0 534 0 541 -20 541 -20 0 -20 -7
-20 -419 0 -403 -1 -419 -20 -444 -27 -34 -25 -63 6 -100 62 -73 -25 -165
-100 -106 -35 28 -36 81 -1 113 19 18 24 30 19 52 -4 23 0 34 20 53 l26 24 0
414 c0 406 0 413 -20 413 -20 0 -20 -7 -20 -422 0 -233 -4 -428 -8 -434 -4 -6
-26 -23 -49 -38 l-43 -26 0 -63 c0 -58 3 -66 33 -95 30 -30 38 -32 100 -32 65
0 69 -1 112 -41 l45 -42 0 -121 0 -122 -45 -44 c-25 -24 -45 -52 -45 -62 0
-51 -50 -95 -94 -82 -38 12 -56 35 -56 74 0 51 28 75 84 72 37 -1 47 3 77 34
33 34 34 38 37 123 4 87 3 89 -28 125 -31 35 -34 36 -105 36 l-72 0 -47 50
-47 50 3 87 3 87 45 26 45 26 0 415 0 414 -30 3 c-17 2 -34 0 -38 -4z m-352
-1759 c30 -30 32 -64 4 -99 -26 -33 -79 -36 -109 -6 -30 30 -27 83 6 109 35
28 69 26 99 -4z m830 0 c30 -30 32 -64 4 -99 -26 -33 -79 -36 -109 -6 -30 30
-27 83 6 109 35 28 69 26 99 -4z m-1946 -535 c31 -16 45 -64 29 -97 -40 -84
-174 -29 -138 58 19 46 66 63 109 39z m280 0 c31 -16 45 -64 29 -97 -40 -84
-174 -29 -138 58 19 46 66 63 109 39z m277 -13 c32 -28 36 -78 8 -108 -27 -30
-87 -26 -113 7 -24 30 -26 43 -10 78 22 47 74 58 115 23z m273 13 c31 -16 45
-64 29 -97 -40 -84 -174 -29 -138 58 19 46 66 63 109 39z m-1329 -22 c29 -32
27 -81 -6 -107 -15 -12 -38 -21 -51 -21 -32 0 -73 42 -73 76 0 65 86 99 130
52z m4090 -258 c45 -45 11 -130 -52 -130 -36 0 -78 40 -78 75 0 61 87 98 130
55z m-4083 -22 c46 -44 14 -128 -49 -128 -36 0 -78 40 -78 75 0 34 42 75 76
75 15 0 38 -10 51 -22z m4078 -243 c30 -30 32 -64 4 -99 -26 -33 -79 -36 -109
-6 -30 30 -27 83 6 109 35 28 69 26 99 -4z m-4072 -17 c34 -40 13 -109 -38
-122 -29 -7 -79 15 -89 39 -32 83 70 150 127 83z m251 11 c53 -41 24 -129 -43
-131 -80 -2 -111 113 -38 142 35 14 52 12 81 -11z m9 -296 c10 -10 17 -31 17
-53 0 -77 -89 -103 -137 -41 -7 9 -12 27 -12 41 0 67 80 99 132 53z m-263 -3
c30 -30 27 -83 -6 -109 -35 -28 -69 -26 -99 4 -31 30 -32 71 -3 102 27 29 80
31 108 3z m4069 -247 c54 -45 24 -133 -45 -133 -71 0 -103 86 -48 129 33 26
65 27 93 4z m-4346 -294 c23 -29 21 -63 -5 -93 -50 -55 -128 -25 -128 48 0 69
88 99 133 45z"/>
<path d="M6157 12103 c-4 -3 -7 -131 -7 -284 0 -268 1 -279 22 -315 16 -28 23
-33 27 -21 3 9 5 154 3 322 -2 286 -4 305 -21 305 -10 0 -21 -3 -24 -7z"/>
<path d="M6254 11548 l4 -562 28 -24 c57 -46 70 -46 32 1 l-38 45 0 205 c0
191 1 205 20 222 19 17 20 31 20 347 l0 328 -35 0 -34 0 3 -562z"/>
<path d="M6757 12103 c-4 -3 -7 -240 -7 -526 l0 -520 105 -106 105 -106 0 224
0 224 -35 63 -35 62 0 346 0 346 -25 0 -25 0 0 -405 c0 -386 1 -408 20 -445
11 -22 20 -45 20 -53 0 -8 16 -30 35 -50 42 -43 45 -78 10 -112 -30 -30 -64
-32 -99 -4 -32 25 -34 68 -6 113 l19 32 -24 53 -25 53 0 409 c0 334 -2 409
-13 409 -8 0 -17 -3 -20 -7z"/>
<path d="M6033 12094 c-10 -4 -13 -76 -13 -310 0 -301 0 -304 21 -304 27 0 79
-53 79 -80 0 -12 -14 -35 -30 -52 -25 -24 -36 -29 -58 -23 -64 16 -62 2 -62
397 l0 358 -32 0 c-42 0 -268 -37 -276 -45 -3 -3 18 -29 46 -58 l52 -53 0
-194 0 -195 195 -195 195 -195 0 150 c0 138 -2 153 -23 185 -21 34 -22 46 -27
325 l-5 290 -25 2 c-14 1 -31 -1 -37 -3z"/>
<path d="M7176 12064 c-3 -9 -6 -347 -6 -751 l0 -736 95 -96 95 -97 0 -99 0
-99 -86 -87 -85 -88 3 -48 3 -48 300 -3 300 -2 52 -52 53 -52 2 -215 3 -216
95 0 95 0 3 165 2 165 148 148 147 147 80 0 80 0 140 -140 140 -140 812 0
c447 0 813 2 813 5 0 2 -5 16 -12 30 l-11 25 -749 0 -750 0 -111 107 c-62 58
-118 113 -124 121 -21 25 -15 51 17 84 25 24 36 29 58 23 44 -11 62 -34 62
-79 0 -38 6 -47 68 -109 l68 -67 232 0 c127 0 232 4 232 8 0 4 -19 27 -43 50
-33 32 -51 42 -75 42 -40 0 -82 38 -82 73 0 40 36 77 76 77 46 0 74 -29 74
-78 0 -30 8 -45 41 -80 l41 -42 433 0 c483 0 470 -2 438 64 l-17 36 -325 0
c-307 0 -326 -1 -345 -19 -12 -11 -33 -23 -48 -26 -22 -6 -33 -1 -58 23 -38
38 -38 66 0 104 35 35 68 33 111 -8 l25 -24 295 0 c163 0 299 3 302 6 4 4 -3
24 -15 45 l-22 39 -511 0 -512 0 -52 -54 c-28 -30 -51 -63 -51 -74 0 -24 -27
-48 -62 -57 -22 -6 -33 -1 -58 23 -35 36 -38 60 -10 95 26 33 50 40 85 27 27
-10 32 -7 80 40 l51 50 497 0 c394 0 497 3 497 13 0 9 -56 102 -77 126 -2 3
-24 -15 -49 -40 l-45 -44 -186 -3 c-142 -3 -191 -7 -207 -18 -68 -48 -148 42
-96 109 l21 27 213 0 212 0 33 34 33 34 -21 31 c-13 17 -26 31 -30 31 -4 0
-22 -16 -41 -35 l-34 -35 -197 0 -196 0 -96 -100 c-105 -110 -128 -120 -172
-75 -30 30 -32 64 -4 99 23 29 60 34 104 14 24 -11 30 -8 88 50 l63 62 195 0
195 0 32 33 33 34 -20 24 -20 24 -43 -42 -44 -43 -178 0 -179 0 -58 -55 -58
-55 -83 0 c-84 0 -84 0 -120 -37 -20 -21 -40 -50 -43 -66 -8 -28 -48 -67 -71
-67 -26 0 -62 23 -73 47 -16 35 -14 49 12 79 19 22 32 27 62 26 33 -1 46 5 86
43 l48 45 82 0 82 0 58 55 58 55 177 0 178 0 28 27 c32 30 35 45 13 63 -12 10
-22 6 -55 -24 l-40 -36 -308 0 -307 0 -153 -153 c-83 -84 -152 -159 -152 -168
0 -26 -44 -59 -78 -59 -70 0 -99 87 -45 130 21 17 36 20 63 16 34 -5 39 -1
191 149 l155 155 310 0 311 0 21 23 c26 28 27 40 7 57 -14 11 -22 7 -58 -28
l-43 -42 -111 0 -111 0 -32 53 c-18 28 -34 54 -35 55 -2 2 -17 -6 -33 -18 -52
-39 -122 -4 -122 60 1 55 61 91 110 65 16 -8 38 -15 49 -15 13 0 31 -20 57
-65 38 -65 65 -84 100 -71 12 5 10 10 -12 29 -19 17 -27 33 -27 55 0 33 26 72
48 72 7 0 18 7 25 15 16 19 7 30 -110 132 l-84 75 -11 -32 c-13 -39 -40 -60
-76 -60 -39 0 -71 30 -74 69 -2 24 -16 47 -59 90 -49 50 -56 61 -56 97 0 41
-13 64 -37 64 -23 0 -17 -145 7 -196 32 -66 3 -114 -69 -114 -65 0 -91 90 -38
134 19 16 22 30 26 102 4 107 -1 127 -41 153 -31 19 -34 19 -40 3 -13 -32 -7
-395 7 -427 18 -42 63 -80 112 -94 46 -13 63 -34 63 -76 0 -33 -42 -75 -75
-75 -37 0 -75 42 -75 81 0 25 -11 44 -50 85 l-50 53 0 253 c0 248 -3 278 -32
278 -4 0 -8 -106 -8 -236 l0 -236 -70 -72 -70 -73 0 -99 0 -99 -190 -190
c-107 -107 -190 -198 -190 -208 0 -10 -7 -31 -15 -46 -24 -48 -68 -54 -111
-18 -55 48 -24 127 50 127 28 0 54 22 214 183 l182 183 0 99 0 99 68 69 67 68
3 238 c3 219 1 240 -15 257 -17 17 -18 8 -21 -232 l-2 -250 -85 -84 c-47 -47
-85 -93 -85 -103 0 -10 7 -29 16 -42 32 -48 -7 -115 -66 -115 -55 1 -91 61
-65 109 8 16 21 31 30 34 8 4 15 16 15 28 0 14 31 54 85 108 l85 87 0 57 0 57
-40 -44 c-29 -32 -40 -52 -40 -75 0 -44 -14 -67 -48 -79 -34 -12 -85 6 -96 33
-19 51 7 101 58 111 19 3 48 20 65 38 l31 32 -2 209 -3 209 -33 19 -34 20 -59
-59 -59 -58 0 -309 0 -308 -45 -48 c-38 -41 -45 -54 -45 -89 0 -73 -76 -107
-125 -57 -14 13 -25 35 -25 48 0 32 36 77 61 77 11 0 40 19 64 41 l45 42 0
314 0 314 57 60 c46 48 54 62 43 69 -29 19 -48 9 -113 -59 l-67 -69 0 -212 0
-212 30 -35 c36 -41 38 -63 7 -99 -17 -20 -33 -27 -56 -26 -65 2 -93 53 -61
114 18 36 20 57 20 271 l0 233 65 64 c36 35 65 68 65 72 0 4 -12 11 -26 14
-22 6 -35 -3 -95 -62 l-69 -68 0 -476 0 -476 38 -37 c24 -23 47 -37 64 -37 35
0 67 -28 74 -67 11 -58 -60 -103 -115 -73 -20 10 -47 67 -37 77 3 3 -17 30
-44 59 l-50 53 0 496 0 497 71 74 72 73 -47 21 c-26 11 -51 20 -55 20 -4 0
-30 -24 -59 -53 l-52 -53 0 -287 c0 -268 1 -289 20 -325 16 -30 18 -45 11 -64
-22 -58 -88 -70 -128 -24 -31 36 -29 58 7 99 l30 35 0 303 0 303 46 47 46 46
-33 12 c-50 17 -60 14 -106 -31 l-43 -42 0 -385 0 -385 95 -97 c84 -85 95
-100 95 -132 0 -68 -78 -100 -125 -52 -28 27 -32 70 -10 99 14 18 10 25 -55
92 l-70 72 0 406 0 406 41 45 40 44 -41 12 c-35 11 -43 10 -51 -2 -5 -8 -9
-216 -9 -474 l0 -459 48 -48 47 -49 5 -115 5 -115 45 -24 c25 -13 57 -27 72
-30 56 -11 72 -97 25 -130 -52 -37 -119 -4 -121 59 -2 33 -7 41 -49 67 l-47
29 0 114 0 114 -45 50 -45 50 -2 498 c-3 466 -4 499 -20 502 -17 3 -18 -26
-18 -492 l0 -495 35 -64 35 -64 0 -134 0 -134 118 -117 c64 -64 127 -119 140
-123 12 -3 29 -20 38 -37 38 -74 -52 -142 -117 -89 -20 16 -24 28 -22 68 l2
48 -115 116 -114 116 0 144 0 144 -33 50 -32 50 -5 -152 -5 -152 -42 -43 c-29
-30 -43 -52 -43 -71 0 -63 -79 -89 -127 -41 -20 20 -24 31 -19 57 8 41 39 67
80 67 22 0 41 9 59 28 l27 28 -2 664 c-3 540 -5 664 -16 668 -11 3 -13 -82
-11 -480 1 -267 -1 -490 -5 -497 -25 -39 -92 -31 -122 14 -16 25 -16 29 -1 73
15 41 17 100 17 473 0 433 -1 449 -37 449 -11 0 -13 -102 -13 -533 l0 -533 48
-47 c26 -26 57 -47 68 -47 29 0 64 -41 64 -74 0 -34 -41 -76 -73 -76 -36 0
-77 36 -77 69 0 19 -15 42 -55 81 l-55 54 0 553 c0 536 -1 553 -19 563 -26 13
-28 13 -35 -6z m302 -1980 c28 -32 28 -56 -1 -90 -17 -19 -33 -27 -56 -27 -82
0 -103 113 -26 143 28 12 56 3 83 -26z m280 0 c28 -32 28 -56 -1 -90 -59 -68
-171 8 -122 83 32 48 82 51 123 7z m550 0 c28 -32 28 -56 -1 -90 -17 -19 -33
-27 -56 -27 -82 0 -103 113 -26 143 28 12 56 3 83 -26z m-286 9 c29 -26 24
-87 -8 -112 -15 -12 -33 -21 -40 -21 -26 0 -62 23 -73 47 -16 34 -14 47 10 77
24 31 81 36 111 9z"/>
<path d="M5530 12013 c-8 -2 -21 -7 -29 -9 -10 -3 10 -30 62 -82 l77 -77 0
-190 0 -189 195 -196 195 -196 0 -190 0 -190 45 -44 c36 -36 45 -40 45 -25 0
11 -11 40 -25 64 -24 42 -25 49 -25 229 l0 186 -195 196 -195 196 0 200 0 200
-63 62 c-34 34 -65 62 -67 61 -3 0 -12 -3 -20 -6z"/>
<path d="M5340 11968 c-19 -5 -38 -13 -42 -17 -4 -3 53 -67 127 -141 l135
-135 0 71 0 70 -84 82 c-46 45 -87 82 -92 81 -5 0 -25 -5 -44 -11z"/>
<path d="M5355 11788 c77 -79 142 -139 144 -134 4 10 -259 276 -273 276 -6 0
53 -64 129 -142z"/>
<path d="M5230 11758 c125 -128 140 -143 140 -135 0 1 -62 63 -137 137 l-138
135 135 -137z"/>
<path d="M5075 11690 c77 -77 142 -140 145 -140 2 0 -58 63 -135 140 -77 77
-142 140 -145 140 -2 0 58 -63 135 -140z"/>
<path d="M4983 11682 l127 -129 0 -240 0 -241 36 -31 35 -32 107 3 107 3 3 35
c3 32 -4 42 -83 120 -85 84 -85 84 -85 53 0 -26 6 -36 29 -47 48 -25 57 -88
18 -124 -31 -29 -72 -28 -102 3 -28 27 -32 62 -10 91 11 15 14 56 15 194 l0
175 -148 148 c-81 81 -154 147 -162 147 -8 0 43 -58 113 -128z"/>
<path d="M4597 11698 c-16 -12 -4 -26 108 -138 l125 -125 0 -359 0 -360 41
-42 c37 -38 45 -42 76 -37 26 4 42 0 64 -16 l29 -22 0 96 0 96 -28 -21 c-82
-61 -178 42 -102 108 26 22 26 23 -15 72 l-35 42 0 237 0 236 -123 123 c-108
108 -125 121 -140 110z"/>
<path d="M5430 11499 l0 -133 80 -82 80 -82 0 -80 c0 -45 5 -84 10 -87 6 -4
10 29 10 92 l0 98 -80 80 -80 80 0 117 c0 67 -4 119 -10 123 -6 4 -10 -41 -10
-126z"/>
<path d="M5560 11425 c0 -6 38 -48 85 -95 71 -71 85 -90 85 -116 0 -28 4 -33
30 -39 54 -12 76 -68 44 -113 -24 -35 -59 -45 -95 -27 -16 9 -29 20 -29 25 0
6 -4 10 -10 10 -19 0 -10 -29 16 -49 20 -16 41 -21 86 -21 59 0 60 -1 119 -57
l59 -56 0 78 0 79 -195 195 c-107 108 -195 191 -195 186z"/>
<path d="M9220 11254 c38 -45 61 -64 77 -64 21 0 9 14 -50 55 -48 35 -50 36
-27 9z"/>
<path d="M5660 11179 c0 -31 4 -48 10 -44 6 3 10 26 10 51 0 24 -4 44 -10 44
-5 0 -10 -23 -10 -51z"/>
<path d="M3432 10897 c-18 -18 -32 -38 -32 -44 0 -6 20 -29 45 -52 32 -29 53
-41 75 -41 35 0 36 2 14 35 -9 14 -14 36 -12 49 4 19 -3 33 -26 56 l-32 30
-32 -33z"/>
<path d="M5016 10875 c4 -8 10 -15 15 -15 4 0 6 7 3 15 -4 8 -10 15 -15 15 -4
0 -6 -7 -3 -15z"/>
<path d="M9666 10850 c5 -24 1 -35 -24 -59 -50 -50 -13 -59 43 -10 41 36 43
48 12 77 -31 29 -38 28 -31 -8z"/>
<path d="M10365 9870 c-3 -5 1 -10 9 -10 9 0 16 5 16 10 0 6 -4 10 -9 10 -6 0
-13 -4 -16 -10z"/>
<path d="M9810 9203 l-145 -148 140 138 140 137 323 0 c208 0 322 4 322 10 0
6 -113 10 -318 10 l-317 0 -145 -147z"/>
<path d="M2396 8868 c-9 -12 -16 -36 -16 -52 l0 -29 25 23 c52 49 125 17 125
-55 0 -45 -40 -77 -89 -73 -21 2 -36 -2 -38 -9 -4 -10 12 -13 59 -13 l63 0
115 115 115 115 -172 0 c-166 0 -172 -1 -187 -22z"/>
<path d="M2665 8710 l-109 -109 -95 -3 -96 -3 -3 -112 c-3 -111 -2 -113 20
-113 16 0 79 56 213 190 l191 190 362 0 362 0 -39 35 -38 35 -329 0 -329 0
-110 -110z"/>
<path d="M10114 8560 l-150 -150 -64 0 -64 0 -92 -90 -91 -90 -88 0 c-86 0
-88 1 -126 35 l-39 35 -143 0 c-110 0 -148 3 -163 15 -13 9 -32 12 -56 8 -26
-4 -45 0 -62 11 -14 9 -28 16 -31 16 -3 0 -5 -123 -5 -273 l0 -273 33 -32 32
-32 365 -4 c201 -3 432 -8 514 -11 l150 -6 240 240 241 240 100 3 c81 2 100 6
100 18 0 12 -19 16 -99 18 l-99 3 -241 -241 -242 -240 -179 0 c-99 0 -186 4
-194 9 -10 6 -25 4 -43 -5 -80 -41 -158 67 -93 131 16 17 35 25 60 25 35 0 42
-5 91 -67 l26 -33 151 0 152 0 240 240 240 240 118 0 c117 0 118 0 115 23 -3
21 -8 22 -107 25 l-105 3 -251 -251 -251 -250 -126 0 -127 0 -59 55 c-54 49
-64 55 -104 55 -40 0 -48 -5 -93 -51 -90 -92 -164 -149 -194 -149 -39 0 -81
44 -81 84 1 70 79 110 131 67 l24 -20 68 67 68 67 79 0 79 0 53 -52 54 -53
104 0 105 0 240 245 240 245 128 0 c120 0 127 1 127 20 0 19 -7 20 -138 20
l-137 0 -175 -176 c-96 -97 -209 -206 -250 -242 l-75 -67 -87 5 c-84 5 -88 6
-125 43 l-39 37 -100 0 -100 0 -49 -50 -49 -50 -106 0 -106 0 -32 -33 c-23
-23 -32 -42 -32 -65 0 -62 -73 -103 -129 -72 -31 16 -46 65 -30 101 15 38 66
63 101 50 19 -7 30 -2 65 30 l43 39 101 0 102 0 53 50 53 50 116 0 115 0 44
-40 c40 -37 47 -40 102 -40 l59 0 252 245 251 245 135 0 c75 0 142 3 151 6 45
17 -1 24 -167 24 l-182 0 -198 -198 c-163 -163 -197 -202 -197 -225 0 -36 -49
-87 -84 -87 -14 0 -37 11 -52 24 -61 52 -20 146 64 146 35 0 49 12 239 203
l203 202 195 3 c110 2 195 8 195 13 0 5 -85 9 -203 9 l-202 0 -160 -160 -160
-160 -53 0 -54 0 -88 -85 -88 -85 -149 0 -148 0 -20 -37 c-26 -48 -72 -64
-110 -39 -48 32 -56 83 -21 131 14 19 24 20 223 17 l208 -3 80 80 80 81 55 0
55 0 162 163 163 162 213 5 212 6 -225 2 -225 2 -151 -150z"/>
<path d="M2825 7960 c-88 -88 -155 -160 -150 -160 5 0 82 72 170 160 89 88
157 160 151 160 -6 0 -83 -72 -171 -160z"/>
<path d="M2860 7905 l-155 -155 -132 0 c-82 0 -133 -4 -133 -10 0 -6 54 -10
142 -10 l141 0 73 70 72 70 201 0 c188 0 202 1 221 20 43 43 130 6 130 -55 0
-14 -11 -37 -25 -50 -34 -35 -74 -33 -110 5 l-29 30 -184 0 -184 0 -72 -70
-72 -69 -144 -3 c-104 -2 -145 -6 -148 -15 -3 -10 31 -13 148 -13 l152 0 35
30 34 30 278 0 279 0 36 40 36 40 0 109 0 109 31 26 31 26 -249 0 -248 0 -155
-155z"/>
<path d="M10340 7785 l-256 -255 -208 0 c-193 0 -210 -1 -233 -20 l-26 -20
234 0 234 0 265 265 c263 263 266 265 308 265 23 0 42 5 42 10 0 6 -24 10 -52
10 l-53 0 -255 -255z"/>
<path d="M4107 7482 l-77 -77 0 -420 0 -419 -163 -163 -163 -163 -155 0 -155
0 -34 -35 c-25 -26 -42 -35 -67 -35 -18 0 -33 -4 -33 -9 0 -17 42 -61 59 -61
9 0 39 22 65 49 l49 50 144 3 144 3 179 181 180 180 0 254 0 254 192 193 192
193 361 0 361 0 32 -33 32 -33 0 -234 0 -235 72 -72 72 -73 1066 0 1065 0 47
-25 c47 -25 48 -25 325 -25 l277 0 118 118 118 118 0 89 0 89 78 78 78 78 189
0 c180 0 188 1 172 18 -16 15 -41 17 -222 17 l-205 0 -80 -80 -80 -80 0 -85 0
-86 -104 -102 -103 -102 -257 0 -256 0 -39 35 -38 35 -1082 0 -1081 0 -25 40
-25 40 0 269 0 270 -31 36 -31 35 -542 0 -541 0 -78 -78z m68 -86 c59 -25 74
-93 31 -143 -19 -22 -32 -28 -66 -28 -98 0 -126 131 -37 170 40 18 32 17 72 1z"/>
<path d="M2510 7470 c0 -6 60 -10 159 -10 96 0 162 4 166 10 4 7 -52 10 -159
10 -104 0 -166 -4 -166 -10z"/>
<path d="M4500 7393 c-8 -3 -90 -80 -182 -171 l-168 -167 0 -255 0 -254 -203
-203 -203 -203 -140 0 -140 0 -49 -50 c-33 -33 -46 -53 -39 -60 7 -7 23 3 49
30 l39 40 245 0 245 0 43 42 c38 37 43 48 43 86 0 86 90 124 151 63 39 -40 39
-82 -1 -123 -27 -26 -36 -29 -73 -26 -39 4 -46 1 -94 -44 l-52 -48 -244 0
-243 0 -27 -28 c-33 -35 -33 -39 0 -74 33 -35 43 -35 43 -2 0 37 50 84 90 84
40 0 90 -47 90 -85 0 -50 -36 -94 -77 -95 -13 0 -23 -4 -23 -10 0 -5 12 -10
27 -10 19 0 45 18 94 65 37 36 75 65 84 65 9 0 30 14 45 30 39 42 90 42 132 0
26 -27 30 -36 25 -68 -7 -43 -46 -82 -83 -82 -35 0 -81 26 -89 50 -3 11 -12
20 -18 20 -7 0 -44 -31 -82 -70 -38 -38 -65 -70 -59 -70 6 0 19 9 29 20 16 18
31 20 134 20 l116 0 150 150 150 150 5 143 c4 127 7 145 28 174 12 17 22 45
22 62 0 23 11 44 41 76 40 43 44 45 98 45 54 0 59 2 104 48 38 39 47 54 47 84
0 23 5 38 16 42 9 3 133 6 276 6 l260 0 82 -80 82 -80 1029 0 1029 0 67 -35
68 -35 256 0 255 0 -2 -207 -3 -208 -435 -3 c-239 -1 -444 0 -455 2 -11 3 -30
15 -43 26 -20 19 -22 30 -22 130 l0 110 -290 0 -290 0 0 -119 c0 -66 -3 -126
-6 -135 -5 -14 -33 -16 -207 -16 l-201 0 -101 100 -102 100 -589 0 -590 0 -47
-48 -47 -48 0 -134 0 -134 -232 -234 c-169 -170 -226 -233 -207 -228 69 16
126 -42 114 -115 -5 -31 -4 -39 8 -39 8 0 18 7 21 16 10 26 7 114 -5 114 -16
0 -40 67 -33 94 22 89 156 89 178 0 8 -32 -17 -90 -43 -99 -18 -5 -21 -14 -21
-63 0 -37 -6 -66 -16 -81 -14 -19 -14 -25 -3 -32 25 -16 35 -10 102 60 l67 69
0 114 c0 114 0 114 -30 143 -62 60 -26 155 59 155 32 0 44 -6 65 -31 35 -41
34 -80 -4 -122 l-30 -35 0 -129 0 -129 -65 -64 c-36 -35 -65 -69 -65 -75 0 -6
43 -32 96 -58 l97 -46 29 24 c38 32 78 32 117 -1 24 -19 31 -34 31 -60 0 -19
5 -34 10 -34 6 0 10 33 10 78 0 77 0 78 -38 115 -25 25 -47 37 -65 37 -73 0
-119 62 -93 125 25 59 93 74 143 31 25 -21 28 -31 26 -78 -1 -48 2 -56 38 -95
l39 -43 0 -100 c0 -60 4 -100 10 -100 6 0 10 71 10 193 l0 193 -65 64 c-61 61
-69 65 -111 65 -38 1 -51 6 -70 28 -28 33 -31 82 -8 115 54 78 178 22 160 -71
-6 -27 1 -38 69 -108 l75 -77 2 -213 c2 -188 2 -199 7 -91 l6 123 76 75 c57
55 83 74 104 74 15 0 40 11 57 25 42 35 91 34 129 -4 39 -40 39 -82 0 -122
-39 -38 -88 -40 -125 -3 -14 15 -26 33 -26 40 0 8 -10 14 -23 14 -16 0 -44
-21 -85 -64 l-62 -64 0 -121 c0 -74 4 -121 10 -121 6 0 10 29 10 67 l0 67 73
73 73 73 104 0 c99 0 105 1 132 27 21 20 28 36 28 66 0 29 7 45 29 68 60 59
151 24 151 -58 -1 -63 -45 -100 -110 -89 -32 5 -40 2 -70 -29 l-34 -35 -105 0
-105 0 -58 -57 -58 -57 0 -63 c0 -35 3 -63 7 -63 4 0 27 19 50 42 36 35 43 49
43 81 0 81 92 116 151 58 40 -40 39 -82 -1 -123 -28 -28 -35 -30 -78 -24 -45
6 -50 4 -82 -29 l-33 -34 29 -12 c16 -7 49 -11 73 -11 31 1 58 -6 87 -23 23
-14 45 -25 48 -25 3 0 6 26 6 58 0 52 3 62 30 87 23 22 30 37 30 68 0 82 95
127 154 72 36 -34 37 -95 0 -132 -23 -23 -31 -25 -74 -20 -65 8 -90 -17 -90
-91 0 -48 18 -82 28 -51 3 8 45 55 93 105 l89 90 0 97 c0 97 0 97 35 136 25
27 35 48 35 70 0 46 47 91 95 91 80 0 117 -101 58 -157 -25 -22 -34 -24 -78
-19 -41 5 -53 2 -72 -16 -21 -20 -23 -30 -23 -122 l0 -100 -92 -93 c-64 -66
-88 -97 -81 -104 19 -19 48 0 137 91 85 87 87 90 72 112 -25 35 -20 76 13 109
61 60 151 24 151 -61 0 -47 -36 -90 -75 -90 -13 0 -32 -8 -42 -17 -41 -38
-156 -163 -152 -167 2 -2 23 -7 47 -11 40 -6 42 -6 42 18 0 14 12 39 26 56 34
41 92 44 130 5 22 -21 25 -33 22 -69 -2 -37 0 -45 16 -49 11 -3 23 -3 28 0 4
3 8 251 8 551 l0 546 92 93 92 94 222 0 223 0 34 -30 35 -30 674 0 673 0 83
83 c45 45 82 90 82 100 0 49 40 86 93 87 49 0 87 -38 87 -87 0 -44 -46 -93
-86 -93 -22 0 -49 -21 -125 -95 l-96 -95 -712 0 -711 0 -39 35 -38 35 -174 0
-175 0 -67 -68 -67 -68 2 -539 3 -540 2 514 3 513 61 67 c33 36 70 71 82 78
24 13 318 17 349 5 28 -11 138 -141 138 -164 0 -11 14 -36 30 -55 37 -41 38
-72 4 -112 -19 -23 -34 -31 -59 -31 -83 0 -118 94 -56 152 17 16 31 35 31 42
0 7 -27 38 -59 69 l-60 57 -147 0 -147 0 -59 -58 -58 -59 2 -509 c3 -475 4
-509 21 -512 16 -3 17 26 17 498 0 353 3 508 11 523 6 12 23 32 38 44 24 21
36 22 178 23 144 0 153 -1 178 -23 59 -50 20 -147 -60 -147 -25 0 -40 8 -59
31 -14 17 -26 35 -26 40 0 6 -32 9 -77 7 l-78 -3 0 -500 0 -500 60 -3 60 -2
-41 19 c-44 20 -54 35 -54 85 0 65 76 101 134 63 33 -22 42 -59 26 -107 -13
-39 -8 -60 13 -60 9 0 11 29 9 107 -3 106 -4 109 -35 141 -24 24 -39 32 -67
32 -62 0 -100 57 -76 115 26 62 89 74 138 25 27 -28 30 -35 24 -73 -6 -39 -4
-45 29 -77 l35 -34 0 -103 c0 -124 11 -143 85 -143 25 0 45 5 45 10 0 6 -7 10
-15 10 -31 0 -72 30 -85 60 -28 67 44 138 110 110 45 -19 66 -64 50 -108 -10
-29 -9 -36 6 -53 9 -10 21 -19 26 -19 4 0 8 53 8 118 l0 118 -33 32 c-24 23
-36 29 -47 22 -32 -20 -77 -11 -104 21 -33 39 -33 69 0 108 48 58 135 31 149
-46 4 -24 20 -52 43 -76 l37 -38 5 -122 5 -122 27 -9 c38 -13 42 -4 18 38 -52
88 49 180 124 113 40 -34 44 -77 10 -116 l-27 -33 29 4 c28 3 29 5 32 62 l3
59 -173 173 -172 174 -84 0 c-88 0 -110 7 -154 48 -18 16 -34 23 -48 19 -34
-9 -79 13 -96 45 -39 75 43 157 117 118 27 -15 51 -65 43 -94 -4 -19 1 -32 19
-50 31 -31 66 -40 114 -31 l38 7 -32 13 c-60 25 -71 89 -24 136 56 56 141 23
141 -56 0 -20 5 -35 12 -35 13 0 383 -364 401 -395 7 -11 15 -56 18 -100 l6
-80 1 95 2 94 -205 206 c-176 177 -205 210 -205 236 0 20 -9 39 -28 57 -27 26
-32 27 -140 27 -109 0 -112 0 -145 30 -19 17 -44 30 -56 30 -52 0 -90 38 -91
91 0 77 97 113 147 54 22 -25 24 -35 19 -76 -9 -70 8 -79 149 -79 l111 0 42
-43 c31 -31 42 -51 42 -73 0 -20 9 -39 26 -55 l27 -24 -6 23 c-22 90 96 147
154 74 25 -32 21 -83 -11 -117 l-20 -21 35 -34 35 -34 0 140 0 140 -34 33
c-29 28 -39 32 -64 26 -34 -7 -86 14 -96 40 -31 81 42 157 114 120 33 -17 53
-55 48 -91 -2 -14 12 -37 40 -68 l42 -46 0 -136 0 -137 120 -122 120 -121 0
-71 c0 -87 9 -133 25 -133 7 0 15 17 19 38 6 43 28 67 67 77 38 9 84 -17 98
-55 12 -37 31 -31 31 9 0 41 -48 82 -103 88 -43 5 -53 14 -176 138 -114 115
-131 136 -131 164 0 21 -9 44 -25 63 -51 60 -19 138 56 138 76 0 105 -83 49
-142 -16 -17 -30 -40 -30 -52 0 -13 45 -65 123 -143 116 -116 125 -123 163
-123 33 0 46 -7 78 -39 25 -25 42 -54 46 -78 l8 -38 1 40 c1 38 -4 45 -154
195 l-155 156 0 122 0 122 -42 46 c-36 39 -46 45 -71 40 -43 -9 -95 18 -111
56 -19 44 -10 83 26 113 42 36 91 34 130 -5 28 -28 30 -35 25 -78 -5 -45 -3
-49 44 -99 l49 -52 0 -123 0 -123 155 -155 c145 -145 155 -157 155 -192 0 -21
5 -38 10 -38 6 0 10 29 10 67 0 58 -3 70 -25 93 -14 15 -28 43 -32 63 -5 32
-1 41 30 72 22 22 45 35 61 35 31 0 86 -26 86 -40 0 -6 6 -10 13 -10 6 0 -7
18 -30 40 -41 39 -45 40 -110 40 l-68 0 -93 93 -92 92 0 68 c0 65 -2 70 -35
101 -28 26 -35 41 -35 70 0 96 104 136 165 64 38 -45 34 -92 -10 -134 -32 -30
-35 -37 -35 -91 l0 -58 78 -78 77 -77 68 0 68 0 55 -51 54 -52 0 -128 c0 -71
3 -129 6 -129 15 0 114 32 114 37 0 3 -20 28 -45 54 -42 45 -45 52 -45 101 0
53 -1 55 -68 121 -61 61 -71 67 -99 61 -35 -7 -87 16 -103 45 -16 32 -12 86
10 114 27 34 78 44 118 23 41 -21 55 -49 49 -100 -4 -40 -2 -44 67 -114 67
-69 71 -75 77 -130 5 -47 6 -38 8 50 1 99 0 107 -19 113 -23 7 -50 53 -50 84
0 12 13 35 29 53 38 42 89 44 128 5 39 -38 37 -87 -5 -130 -31 -32 -32 -35
-32 -123 l0 -90 48 -47 c26 -26 55 -47 65 -47 22 0 21 6 -3 37 -18 24 -20 41
-20 202 l0 177 -43 42 -43 42 -92 0 c-87 0 -93 1 -124 29 -25 22 -40 28 -61
24 -59 -11 -117 39 -117 101 0 14 13 40 29 58 39 44 98 46 138 5 24 -24 28
-35 26 -80 -2 -79 10 -87 124 -87 l94 0 55 -52 c30 -28 57 -62 61 -76 l6 -24
14 30 c28 57 98 69 144 23 37 -38 38 -79 2 -121 l-26 -31 66 -67 c37 -37 67
-75 67 -83 0 -30 13 -28 52 6 30 28 46 35 78 35 40 0 53 13 24 24 -9 3 -49 6
-89 6 -68 0 -75 2 -94 26 -18 23 -21 41 -21 136 l0 109 -37 34 c-31 28 -46 35
-80 35 -34 0 -46 6 -67 31 -49 58 -20 134 56 146 32 5 41 1 68 -26 27 -26 31
-37 29 -71 -3 -36 2 -47 39 -90 l42 -49 0 -103 c0 -57 5 -110 10 -118 7 -11
32 -16 92 -18 65 -3 88 -8 104 -24 39 -35 34 -2 -5 36 -34 33 -40 36 -65 26
-85 -32 -159 77 -97 144 63 67 161 22 161 -72 0 -22 11 -40 45 -71 50 -46 53
-47 81 -26 18 13 6 27 -221 255 l-240 240 -84 0 c-77 0 -87 -2 -111 -25 -24
-23 -26 -32 -22 -73 4 -41 1 -51 -23 -75 -38 -38 -87 -37 -126 2 -20 20 -29
39 -29 61 0 47 47 90 97 90 31 0 46 7 73 35 l34 35 106 0 105 0 245 -245 c214
-214 249 -245 275 -244 26 0 27 1 10 9 -11 5 -121 110 -245 234 l-224 226 -4
321 -4 321 -30 -36 c-25 -30 -36 -36 -69 -36 -86 0 -123 100 -57 155 43 36 91
30 132 -17 l28 -33 -5 87 c-6 105 -4 109 122 233 l91 90 0 90 0 89 57 58 57
58 146 0 145 1 -24 19 c-21 18 -39 20 -175 20 l-152 0 -67 -68 -67 -68 0 -84
0 -85 -132 -132 -133 -133 -310 0 c-293 0 -312 1 -340 20 -29 20 -49 20 -1104
20 l-1074 0 -93 92 -94 92 0 228 c0 133 -4 237 -10 248 -12 23 -56 33 -95 21
-16 -5 -23 -10 -14 -10 29 -2 63 -49 63 -88 0 -27 -7 -42 -32 -64 -18 -16 -41
-29 -53 -29 -57 0 -109 62 -94 112 9 30 44 68 64 69 9 1 3 5 -14 9 -40 10
-243 10 -275 0 -14 -4 -19 -8 -12 -9 7 -1 24 -12 37 -26 48 -47 21 -135 -44
-150 -53 -11 -111 33 -111 85 0 33 27 78 52 86 l23 8 -25 7 c-29 8 -128 10
-150 2z m-11 -309 c53 -44 40 -123 -24 -150 -99 -41 -174 100 -82 156 43 27
69 25 106 -6z m269 -10 c41 -47 25 -115 -33 -140 -82 -34 -160 62 -109 134 34
48 102 51 142 6z m326 25 c31 -15 59 -70 50 -103 -3 -13 -17 -34 -30 -47 -68
-64 -179 16 -143 103 20 48 74 69 123 47z m-594 -294 c36 -37 33 -89 -8 -126
-36 -33 -60 -36 -102 -14 -53 27 -60 106 -14 146 41 35 84 33 124 -6z m2455
-527 c22 -26 26 -39 21 -66 -7 -43 -29 -69 -68 -77 -89 -20 -148 86 -83 150
37 38 95 35 130 -7z m-2188 -2 c22 -19 28 -32 28 -66 0 -34 -6 -47 -28 -66
-74 -63 -180 12 -143 101 8 18 22 38 33 44 31 18 80 13 110 -13z m275 13 c11
-6 26 -26 34 -45 38 -90 -68 -164 -143 -100 -22 19 -28 32 -28 66 0 34 6 47
28 66 30 26 75 31 109 13z m275 -13 c61 -53 21 -156 -61 -156 -65 0 -106 66
-81 127 24 57 93 71 142 29z m277 -2 c37 -37 35 -86 -3 -125 -20 -20 -39 -29
-61 -29 -22 0 -41 9 -61 29 -20 20 -29 39 -29 61 0 22 9 41 29 61 39 38 88 40
125 3z m249 6 c34 -27 43 -70 23 -109 -40 -76 -139 -67 -166 13 -20 60 21 115
86 116 17 0 43 -9 57 -20z m810 0 c66 -52 27 -160 -58 -160 -37 0 -62 16 -81
51 -44 85 62 169 139 109z m-1914 -261 c31 -11 61 -52 61 -84 0 -56 -70 -106
-121 -86 -80 30 -82 140 -4 172 27 11 28 11 64 -2z m321 -24 c54 -54 12 -149
-66 -149 -29 0 -43 7 -65 32 -16 18 -29 41 -29 52 0 35 24 73 55 86 38 17 73
10 105 -21z m229 24 c31 -11 61 -52 61 -83 0 -51 -65 -103 -114 -90 -84 21
-92 142 -11 175 27 11 28 11 64 -2z m309 -25 c42 -48 24 -119 -38 -144 -55
-23 -120 22 -120 83 0 86 101 125 158 61z m270 -270 c60 -68 -13 -171 -101
-141 -35 12 -57 43 -57 82 0 85 101 123 158 59z"/>
<path d="M10304 7139 l-230 -229 -563 0 -563 0 -29 29 c-23 24 -29 38 -29 74
0 37 -4 46 -25 55 -14 7 -55 12 -90 12 -57 0 -66 -3 -84 -26 -18 -22 -21 -41
-21 -113 l0 -86 -105 -105 -105 -105 0 -67 c0 -38 2 -68 4 -68 3 0 31 27 62
61 53 55 58 64 55 99 -2 31 3 45 23 65 65 65 164 -10 130 -100 -9 -21 -56 -45
-91 -45 -21 0 -42 -13 -76 -48 l-47 -48 0 -294 0 -295 178 -177 177 -177 58
-3 c69 -4 72 14 3 23 -47 5 -53 10 -217 176 l-169 170 0 259 0 258 192 193
192 193 686 2 685 3 77 155 c43 85 78 162 78 170 0 8 -76 -61 -168 -153 l-168
-167 -592 0 c-631 0 -633 0 -676 48 -15 18 -26 20 -60 16 -58 -8 -100 26 -100
81 0 44 39 85 80 85 36 0 84 -51 84 -88 0 -22 10 -39 35 -61 l36 -31 586 0
587 0 208 207 c141 141 211 218 219 241 6 18 9 35 7 37 -2 2 -107 -99 -234
-226z"/>
<path d="M2580 7261 c0 -19 21 -66 33 -73 18 -12 739 -9 757 2 12 8 11 10 -7
10 -33 0 -71 20 -88 47 l-15 23 -340 0 c-204 0 -340 -4 -340 -9z"/>
<path d="M9025 7220 c3 -5 44 -10 91 -10 l85 0 48 -45 c32 -30 57 -45 75 -45
58 0 97 -79 61 -126 -8 -10 -15 -22 -15 -26 0 -5 41 -8 90 -8 50 0 90 2 90 5
0 3 -9 14 -20 25 -14 14 -20 33 -20 62 0 32 -6 49 -27 70 -25 26 -33 28 -100
28 -72 0 -74 1 -117 40 l-43 40 -102 0 c-66 0 -100 -4 -96 -10z"/>
<path d="M8642 7107 l-42 -43 0 -89 -1 -90 -107 -114 -107 -113 3 -322 c1
-176 5 -361 8 -411 l6 -90 206 -207 c114 -115 209 -208 212 -208 3 0 -88 93
-202 208 l-208 208 0 413 0 414 105 107 105 106 0 88 0 88 39 39 c38 39 39 39
117 39 63 0 87 -5 119 -23 37 -21 40 -26 45 -75 5 -51 19 -71 48 -72 16 0 15
6 -4 36 -12 17 -15 36 -11 61 6 32 2 42 -20 65 -26 28 -29 28 -148 28 l-121 0
-42 -43z"/>
<path d="M9012 7133 c6 -7 25 -13 42 -13 59 0 95 -60 71 -117 -8 -19 -15 -37
-15 -39 0 -2 36 -4 81 -4 l80 0 -15 22 c-9 12 -16 41 -16 63 0 32 -6 47 -27
67 -25 24 -37 27 -120 30 -72 2 -89 0 -81 -9z"/>
<path d="M2700 6976 c27 -71 0 -66 357 -66 177 0 324 4 327 8 2 4 -11 8 -31 8
-29 0 -42 7 -68 37 l-32 37 -281 0 -282 0 10 -24z"/>
<path d="M3237 6693 l-97 -98 -108 -6 -107 -5 143 -2 144 -2 95 87 c52 49 99
96 104 105 9 16 5 18 -33 18 -41 0 -48 -4 -141 -97z"/>
<path d="M8777 6592 l-177 -177 0 -239 0 -238 82 -84 c45 -46 85 -84 90 -84 4
0 8 70 8 155 0 136 3 161 20 195 18 35 20 59 20 208 l0 168 99 97 98 97 472 0
472 0 74 -70 c88 -84 93 -83 154 13 l40 62 -612 3 -612 2 -132 -132 -133 -133
0 -72 c0 -61 3 -74 19 -82 10 -6 24 -24 29 -41 33 -92 -86 -158 -142 -78 -24
35 -20 73 14 111 28 32 30 41 30 108 l0 74 148 148 147 147 637 0 c414 0 639
4 643 10 4 7 -216 10 -652 10 l-658 0 -178 -178z"/>
<path d="M3935 6674 c-10 -8 -35 -14 -55 -14 -28 0 -43 -8 -68 -33 -30 -31
-32 -37 -32 -111 l0 -77 -51 -55 -52 -54 -278 0 c-154 0 -279 -4 -279 -8 0 -5
16 -27 36 -50 33 -39 39 -42 85 -42 42 0 54 5 88 35 l38 35 150 0 149 0 152
153 c140 141 152 156 152 190 0 43 -8 50 -35 31z"/>
<path d="M8954 6558 l-84 -82 0 -162 c0 -90 -5 -175 -10 -191 l-10 -28 25 28
c22 25 25 37 25 102 l0 75 42 27 42 28 252 0 253 0 33 -32 c19 -18 44 -33 57
-33 51 0 90 -38 91 -88 0 -43 -38 -82 -80 -82 -49 0 -80 38 -80 98 0 85 -6 87
-254 90 -237 3 -263 0 -294 -29 -19 -17 -22 -31 -22 -90 0 -61 -3 -75 -25
-101 -24 -28 -25 -36 -25 -149 l0 -119 36 -40 c36 -39 38 -40 103 -40 l67 0
63 -65 63 -65 31 22 32 23 -38 6 c-27 4 -53 21 -96 62 -56 54 -63 57 -109 57
-46 0 -53 3 -91 45 -41 45 -41 45 -41 125 l0 81 52 55 c47 50 50 56 40 80 -19
40 -14 63 17 95 36 35 70 37 107 5 21 -18 28 -32 28 -61 0 -29 -7 -43 -28 -61
-15 -13 -35 -24 -44 -24 -10 0 -41 -24 -70 -53 -51 -52 -52 -53 -52 -114 0
-52 4 -66 26 -92 21 -25 33 -31 65 -31 45 0 45 14 0 23 -20 4 -35 17 -46 36
-22 44 -19 69 15 103 26 25 36 29 62 24 60 -12 86 -56 67 -113 -11 -34 -10
-36 37 -84 l48 -49 98 0 c59 0 98 4 98 10 0 6 -35 10 -84 10 l-83 0 -47 50
-46 49 0 78 c0 43 -3 88 -6 101 -5 18 3 31 40 64 37 34 46 48 46 75 0 39 37
83 70 83 80 0 120 -93 63 -146 -23 -22 -35 -25 -68 -21 -33 5 -45 1 -67 -18
-27 -23 -28 -28 -28 -113 0 -87 1 -89 33 -120 31 -30 37 -32 111 -32 42 0 86
-5 98 -11 11 -6 22 -8 26 -5 6 7 -57 76 -70 76 -4 0 -18 -11 -32 -25 -31 -31
-74 -32 -110 -4 -36 28 -37 89 -1 124 43 44 74 32 198 -76 l42 -37 -3 44 c-3
35 0 47 22 68 29 30 57 33 97 9 l29 -17 80 79 c44 44 80 84 80 90 0 6 -62 72
-138 148 l-137 137 -72 0 c-66 0 -74 -2 -101 -30 -45 -45 -101 -40 -127 11
-22 42 -18 67 14 100 37 37 68 37 116 -1 34 -27 44 -30 114 -30 l76 0 148
-147 148 -148 35 40 c70 79 71 82 40 114 -15 16 -42 32 -59 35 -71 14 -99 85
-56 140 28 36 86 36 119 1 20 -21 22 -31 17 -73 -5 -44 -3 -52 19 -73 27 -25
34 -8 9 25 -9 12 -15 41 -15 71 0 43 -4 56 -28 78 l-28 27 -359 0 -359 0 -37
-36 c-32 -32 -37 -41 -32 -70 7 -41 -16 -80 -54 -95 -62 -23 -125 44 -102 110
13 37 35 51 81 51 27 0 43 9 76 43 23 23 42 46 42 50 0 4 -30 7 -66 7 l-66 0
-84 -82z"/>
<path d="M9940 6634 c0 -5 18 -28 40 -49 37 -37 40 -43 40 -96 0 -32 5 -61 11
-64 15 -10 19 -2 30 46 l10 43 -66 65 c-36 36 -65 61 -65 55z"/>
<path d="M8832 5935 l-2 -151 58 -56 c50 -49 63 -56 106 -61 42 -4 55 -12 101
-57 49 -48 75 -57 75 -27 0 7 -22 34 -48 60 -47 46 -49 47 -111 47 -61 0 -63
1 -114 49 l-52 50 -6 148 -5 148 -2 -150z"/>
<path d="M8460 5868 c0 -6 86 -99 192 -205 l192 -193 54 0 c29 0 62 -5 74 -11
29 -16 37 0 9 22 -16 13 -39 19 -75 19 l-51 0 -190 190 c-104 105 -193 190
-197 190 -5 0 -8 -5 -8 -12z"/>
<path d="M9050 5565 c24 -24 46 -42 49 -40 6 7 -70 85 -83 85 -6 0 10 -20 34
-45z"/>
<path d="M8898 5413 c6 -2 18 -2 25 0 6 3 1 5 -13 5 -14 0 -19 -2 -12 -5z"/>
<path d="M8130 5249 c0 -153 0 -156 25 -179 28 -26 47 -20 22 7 -25 29 -30 68
-13 102 19 36 44 51 86 51 l32 0 -31 35 c-17 20 -31 39 -31 43 0 4 -14 13 -31
21 -18 8 -37 27 -45 45 -12 28 -13 15 -14 -125z"/>
<path d="M7007 5160 l162 -165 4 -100 3 -100 2 100 2 100 -167 165 -168 165
162 -165z"/>
<path d="M6632 5297 c28 -8 79 -53 222 -197 l186 -186 0 -68 c0 -42 4 -65 10
-61 6 3 10 38 10 78 l0 71 -188 188 -188 188 -44 -1 -45 -2 37 -10z"/>
<path d="M8337 5148 c8 -44 13 -48 13 -10 0 17 -4 34 -10 37 -6 4 -7 -6 -3
-27z"/>
<path d="M7770 5055 c-13 -14 -29 -25 -36 -25 -6 0 -15 -7 -18 -16 -9 -23 -7
-102 2 -108 5 -3 25 0 45 6 l37 11 0 79 c0 43 -1 78 -3 78 -2 0 -14 -11 -27
-25z"/>
</g>
</svg>
